<svg width="342" height="342" viewBox="0 0 342 342" fill="none" xmlns="http://www.w3.org/2000/svg">
<mask id="mask0" mask-type="alpha" maskUnits="userSpaceOnUse" x="0" y="0" width="342" height="342">
<circle cx="170.722" cy="171" r="170.222" fill="white" stroke="black"/>
</mask>
<g mask="url(#mask0)">
<g filter="url(#filter0_i)">
<path d="M-5.87108 167.846C-16.5519 184.494 31.5118 319.425 111.618 333.444C191.724 347.463 363.143 -76.3181 246.909 33.7913C130.674 143.901 4.80975 151.199 -5.87108 167.846Z" fill="#810000"/>
<g filter="url(#filter1_i)">
<path d="M-8.41101 245.236C-13.975 264.216 121.69 373.639 202.504 364.546C283.318 355.453 328.54 -99.4419 247.993 38.9295C167.445 177.301 -2.84707 226.256 -8.41101 245.236Z" fill="#630000"/>
</g>
<g filter="url(#filter2_i)">
<path d="M122.563 363.764C125.931 384.11 290.986 391.466 364.903 336.084C438.821 280.701 272.935 -155.461 258.84 16.2162C244.746 187.893 119.195 343.418 122.563 363.764Z" fill="#1B1717"/>
</g>
</g>
</g>
<defs>
<filter id="filter0_i" x="-8.57697" y="-23.5664" width="392.371" height="406.416" filterUnits="userSpaceOnUse" color-interpolation-filters="sRGB">
<feFlood flood-opacity="0" result="BackgroundImageFix"/>
<feBlend mode="normal" in="SourceGraphic" in2="BackgroundImageFix" result="shape"/>
<feColorMatrix in="SourceAlpha" type="matrix" values="0 0 0 0 0 0 0 0 0 0 0 0 0 0 0 0 0 0 127 0" result="hardAlpha"/>
<feOffset dy="4"/>
<feGaussianBlur stdDeviation="2"/>
<feComposite in2="hardAlpha" operator="arithmetic" k2="-1" k3="1"/>
<feColorMatrix type="matrix" values="0 0 0 0 0 0 0 0 0 0 0 0 0 0 0 0 0 0 0.25 0"/>
<feBlend mode="normal" in2="shape" result="effect1_innerShadow"/>
</filter>
<filter id="filter1_i" x="-8.57697" y="12.7558" width="298.892" height="356.326" filterUnits="userSpaceOnUse" color-interpolation-filters="sRGB">
<feFlood flood-opacity="0" result="BackgroundImageFix"/>
<feBlend mode="normal" in="SourceGraphic" in2="BackgroundImageFix" result="shape"/>
<feColorMatrix in="SourceAlpha" type="matrix" values="0 0 0 0 0 0 0 0 0 0 0 0 0 0 0 0 0 0 127 0" result="hardAlpha"/>
<feOffset dy="4"/>
<feGaussianBlur stdDeviation="2"/>
<feComposite in2="hardAlpha" operator="arithmetic" k2="-1" k3="1"/>
<feColorMatrix type="matrix" values="0 0 0 0 0 0 0 0 0 0 0 0 0 0 0 0 0 0 0.25 0"/>
<feBlend mode="normal" in2="shape" result="effect1_innerShadow"/>
</filter>
<filter id="filter2_i" x="122.497" y="-23.5664" width="261.297" height="406.416" filterUnits="userSpaceOnUse" color-interpolation-filters="sRGB">
<feFlood flood-opacity="0" result="BackgroundImageFix"/>
<feBlend mode="normal" in="SourceGraphic" in2="BackgroundImageFix" result="shape"/>
<feColorMatrix in="SourceAlpha" type="matrix" values="0 0 0 0 0 0 0 0 0 0 0 0 0 0 0 0 0 0 127 0" result="hardAlpha"/>
<feOffset dy="4"/>
<feGaussianBlur stdDeviation="2"/>
<feComposite in2="hardAlpha" operator="arithmetic" k2="-1" k3="1"/>
<feColorMatrix type="matrix" values="0 0 0 0 0 0 0 0 0 0 0 0 0 0 0 0 0 0 0.25 0"/>
<feBlend mode="normal" in2="shape" result="effect1_innerShadow"/>
</filter>
</defs>
</svg>
