<svg width="1440" height="720" viewBox="0 0 1440 720" fill="none" xmlns="http://www.w3.org/2000/svg">
<rect x="1056.35" y="1000.89" width="91.0397" height="1822.8" transform="rotate(120 1056.35 1000.89)" fill="white"/>
<rect x="1056.35" y="1119.86" width="91.0397" height="1822.8" transform="rotate(120 1056.35 1119.86)" fill="white"/>
<rect x="1038.46" y="911.781" width="19.5016" height="1822.8" transform="rotate(120 1038.46 911.781)" fill="white"/>
<rect x="909.993" y="1191.84" width="19.5016" height="1822.8" transform="rotate(120 909.993 1191.84)" fill="white"/>
<path d="M-117.265 1104.8C-103.426 1059.13 -76.8895 1022.9 -40.9909 994.86C-5.73704 953.308 37.7558 923.212 86.0945 935.424C211.006 902.493 372.97 911.639 522.583 944.282C551.897 934.425 585.064 924.651 623.311 915.717C719.049 893.355 774.816 887.747 820.78 890.696C946.592 807.526 1029.36 669.962 1149.55 643.392C1343.38 600.546 1547.23 699.203 1547.23 850.186C1547.23 1001.17 1539.41 960.604 1190.52 944.282C961.124 933.55 909.015 896.357 820.78 890.696C743.705 941.648 650.474 972.185 522.583 944.282C337.66 1006.46 306.036 1071.92 119.356 950.402C108.05 943.043 96.9501 938.167 86.0945 935.424C37.0125 948.364 -6.34841 967.8 -40.9909 994.86C-118.978 1086.78 -156.646 1234.76 -117.265 1104.8Z" fill="white"/>
</svg>
