<svg width="1440" height="110" viewBox="0 0 1440 110" fill="none" xmlns="http://www.w3.org/2000/svg">
<path d="M623.685 34.5851C354.365 -24.1757 31.3163 59.0688 -96.543 108.036C-96.543 133.88 -53.2885 213.724 119.73 326.349C336.002 467.13 344.163 356.954 623.685 291.664C903.207 226.374 841.998 303.906 1190.89 320.228C1539.78 336.551 1503.06 234.535 1503.06 83.5525C1503.06 -67.4302 1399 85.5928 1205.17 128.439C1011.34 171.286 960.336 108.036 623.685 34.5851Z" fill="#810000"/>
<path d="M956.521 70.5487C968.074 87.6923 993.417 113.929 1002.36 81.7293C1013.54 41.4792 947.873 59.3681 956.521 70.5487Z" fill="#810000"/>
<path d="M1049.52 50.4535C1061.07 67.5971 1086.41 93.8343 1095.36 61.6341C1106.54 21.3839 1040.87 39.2729 1049.52 50.4535Z" fill="#810000"/>
<path d="M1150.07 98.3638C1161.03 91.7893 1178.05 76.9977 1158.46 70.4272C1133.98 62.2141 1142.88 103.339 1150.07 98.3638Z" fill="#810000"/>
<path d="M1073.2 96.9012C1080.71 108.052 1097.2 125.117 1103.01 104.173C1110.29 77.994 1067.57 89.6292 1073.2 96.9012Z" fill="#810000"/>
<path d="M988.259 111.394C995.774 122.545 1012.26 139.61 1018.07 118.666C1025.35 92.4872 982.635 104.122 988.259 111.394Z" fill="#810000"/>
<path d="M1021.61 63.1949C1019.04 83.7083 1020.89 120.139 1048.8 101.758C1083.68 78.7805 1022.44 49.0848 1021.61 63.1949Z" fill="#810000"/>
<path d="M1108.74 64.1153C1107.01 77.9367 1108.26 102.483 1127.06 90.0979C1150.57 74.6164 1109.31 54.6083 1108.74 64.1153Z" fill="#810000"/>
<path d="M1157.39 100.2C1155.66 114.021 1156.9 138.568 1175.7 126.182C1199.21 110.701 1157.95 90.6928 1157.39 100.2Z" fill="#810000"/>
<path d="M984.522 10.209C961.385 21.3143 965.243 37.6057 1007.66 50.4665C1050.07 63.3274 1007.66 -0.896424 984.522 10.209Z" fill="#810000"/>
<path d="M1127.94 101.816C1115.52 106.769 1116.95 115.372 1138.54 123.556C1160.13 131.739 1140.36 96.8635 1127.94 101.816Z" fill="#810000"/>
</svg>
